<svg width="34" height="34" viewBox="0 0 34 34" fill="none" xmlns="http://www.w3.org/2000/svg">
<g id="icon-park-solid:music">
<g id="Mask group">
<mask id="mask0_190_498" style="mask-type:luminance" maskUnits="userSpaceOnUse" x="2" y="1" width="29" height="31">
<g id="Group">
<g id="Group_2">
<path id="Vector" d="M21.25 24.4375C21.25 23.78 21.5112 23.1494 21.9761 22.6845C22.4411 22.2196 23.0717 21.9584 23.7292 21.9584H29.0417V24.3667C29.0417 25.043 28.773 25.6916 28.2948 26.1698C27.8166 26.648 27.168 26.9167 26.4917 26.9167H23.7292C23.0717 26.9167 22.4411 26.6555 21.9761 26.1906C21.5112 25.7256 21.25 25.0951 21.25 24.4375ZM4.25 27.2709C4.25 26.6134 4.5112 25.9828 4.97613 25.5178C5.44107 25.0529 6.07165 24.7917 6.72917 24.7917H11.3333V27.2C11.3333 27.5349 11.2674 27.8665 11.1392 28.1759C11.0111 28.4853 10.8232 28.7664 10.5865 29.0032C10.3497 29.24 10.0686 29.4278 9.75918 29.5559C9.4498 29.6841 9.1182 29.75 8.78333 29.75H6.72917C6.07165 29.75 5.44107 29.4888 4.97613 29.0239C4.5112 28.559 4.25 27.9284 4.25 27.2709Z" fill="white" stroke="white" stroke-width="3.33333" stroke-linejoin="round"/>
<path id="Vector_2" d="M11.3334 12.7812L29.0417 8.58858M11.3334 26.9167V7.08337L29.0417 2.83337V23.8652" stroke="white" stroke-width="3.33333" stroke-linecap="round" stroke-linejoin="round"/>
</g>
</g>
</mask>
<g mask="url(#mask0_190_498)">
<path id="Vector_3" d="M0 0H34V34H0V0Z" fill="#A5A5A5"/>
</g>
</g>
</g>
</svg>
