<svg width="32" height="31" viewBox="0 0 32 31" fill="none" xmlns="http://www.w3.org/2000/svg">
<path id="Vector" d="M4.75245 26.35C4.29719 26.35 3.9153 26.2012 3.60679 25.9036C3.29828 25.606 3.14456 25.2381 3.14563 24.8C3.14563 24.3608 3.29989 23.9925 3.6084 23.6948C3.91691 23.3972 4.29826 23.249 4.75245 23.25H6.35927V12.4C6.35927 10.2558 7.02878 8.35037 8.3678 6.6836C9.70682 5.01684 11.4475 3.92564 13.59 3.41V2.325C13.59 1.67917 13.8246 1.12995 14.2938 0.677353C14.763 0.224754 15.3318 -0.0010298 16.0002 3.53075e-06C16.6697 3.53075e-06 17.2391 0.226303 17.7083 0.678903C18.1774 1.1315 18.4115 1.6802 18.4104 2.325V3.41C20.5529 3.92667 22.2936 5.01839 23.6326 6.68515C24.9716 8.35192 25.6411 10.2569 25.6411 12.4V23.25H27.248C27.7032 23.25 28.0851 23.3988 28.3936 23.6964C28.7021 23.994 28.8558 24.3619 28.8548 24.8C28.8548 25.2392 28.7005 25.6075 28.392 25.9051C28.0835 26.2027 27.7022 26.351 27.248 26.35H4.75245ZM16.0002 31C15.1165 31 14.3596 30.6962 13.7298 30.0886C13.0999 29.481 12.7855 28.7515 12.7866 27.9H19.2138C19.2138 28.7525 18.8989 29.4825 18.269 30.0901C17.6392 30.6977 16.8829 31.001 16.0002 31ZM9.57292 23.25H22.4275V12.4C22.4275 10.695 21.7982 9.23542 20.5395 8.02125C19.2808 6.80709 17.7677 6.2 16.0002 6.2C14.2327 6.2 12.7196 6.80709 11.4609 8.02125C10.2023 9.23542 9.57292 10.695 9.57292 12.4V23.25ZM1.53881 12.4C1.08354 12.4 0.701655 12.2321 0.393145 11.8963C0.0846354 11.5604 -0.0423035 11.1729 0.0123284 10.7338C0.226571 8.79625 0.788959 6.99412 1.69949 5.32735C2.61002 3.66059 3.77497 2.20772 5.19433 0.968753C5.54247 0.684587 5.93775 0.55542 6.38016 0.581253C6.82257 0.607087 7.17715 0.800837 7.44388 1.1625C7.71168 1.52417 7.8188 1.91167 7.76524 2.325C7.71168 2.73834 7.51083 3.1 7.16268 3.41C6.11825 4.36584 5.26128 5.47667 4.59177 6.7425C3.92226 8.00834 3.48039 9.3775 3.26614 10.85C3.21258 11.2892 3.02512 11.6576 2.70375 11.9552C2.38239 12.2528 1.99408 12.401 1.53881 12.4ZM30.4616 12.4C30.0063 12.4 29.618 12.2512 29.2967 11.9536C28.9753 11.656 28.7878 11.2881 28.7343 10.85C28.52 9.3775 28.0781 8.00834 27.4086 6.7425C26.7391 5.47667 25.8822 4.36584 24.8377 3.41C24.4896 3.1 24.2887 2.73834 24.2352 2.325C24.1816 1.91167 24.2887 1.52417 24.5565 1.1625C24.8243 0.800837 25.1794 0.607087 25.6219 0.581253C26.0643 0.55542 26.459 0.684587 26.8061 0.968753C28.2254 2.20875 29.3904 3.66162 30.3009 5.32735C31.2114 6.99308 31.7738 8.79522 31.9881 10.7338C32.0416 11.1729 31.9147 11.5604 31.6073 11.8963C31.2998 12.2321 30.9179 12.4 30.4616 12.4Z" fill="#A5A5A5"/>
</svg>
