<svg width="34" height="34" viewBox="0 0 34 34" fill="none" xmlns="http://www.w3.org/2000/svg">
<g id="gg:search">
<path id="Vector" fill-rule="evenodd" clip-rule="evenodd" d="M24.259 22.5081C26.1173 19.9462 26.993 16.7234 26.7082 13.4954C26.4233 10.2674 24.9992 7.27671 22.7255 5.13176C20.4519 2.9868 17.4995 1.84869 14.469 1.94898C11.4385 2.04926 8.55758 3.3804 6.41229 5.67159C4.26513 7.96436 3.0163 11.0464 2.92028 14.2896C2.82427 17.5329 3.88829 20.6932 5.89553 23.1266C7.90276 25.5601 10.7021 27.0834 13.7232 27.3863C16.7443 27.6892 19.7596 26.7488 22.1548 24.7567L22.2189 24.8284L28.5404 31.5901C28.6788 31.7382 28.8432 31.8557 29.0241 31.9358C29.205 32.0159 29.3989 32.0572 29.5947 32.0572C29.7905 32.0572 29.9844 32.0159 30.1653 31.9358C30.3462 31.8557 30.5106 31.7382 30.649 31.5901C30.7875 31.4421 30.8973 31.2663 30.9722 31.0728C31.0472 30.8794 31.0857 30.672 31.0857 30.4627C31.0857 30.2533 31.0472 30.0459 30.9722 29.8525C30.8973 29.659 30.7875 29.4832 30.649 29.3352L24.3261 22.5751C24.3043 22.5521 24.2819 22.5298 24.259 22.5081ZM21.1653 7.92655C22.0067 8.81177 22.6759 9.86638 23.1342 11.0295C23.5925 12.1927 23.831 13.4414 23.8358 14.7036C23.8406 15.9658 23.6117 17.2165 23.1622 18.3836C22.7127 19.5507 22.0516 20.6111 21.217 21.5037C20.3824 22.3962 19.3908 23.1032 18.2995 23.5838C17.2081 24.0645 16.0385 24.3093 14.8582 24.3041C13.6779 24.299 12.5103 24.044 11.4226 23.5539C10.3349 23.0637 9.34871 22.3481 8.52093 21.4484C6.86668 19.6503 5.94385 17.226 5.95345 14.7036C5.96306 12.1812 6.90432 9.76501 8.57221 7.98139C10.2401 6.19776 12.4995 5.19118 14.8582 5.18091C17.2169 5.17064 19.4839 6.15751 21.1653 7.92655Z" fill="#A5A5A5"/>
</g>
</svg>
